# xmcd
#
# Track frame offsets:
#	150
#	14322
#	30186
#	41979
#	55909
#	69751
#	81433
#	95575
#	107903
#	121388
#	135034
#	151049
#	160821
#	173815
#	188843
#	203472
#	216628
#	227890
#	243746
#	265654
#	298161
#
# Disc length: 4448 seconds
#
# Revision: 0
# Processed by: cddbd v1.5.2PL0 Copyright (c) Steve Scherf et al.
# Submitted via: EasyCDDAExtractor 12.0.1.1
#
DISCID=20115e15
DTITLE=Mindless Self Indulgence - if
DYEAR=1900
DGENRE=
TTITLE0=Never Wanted to Dance
TTITLE1=Evening Wear
TTITLE2=Lights Out
TTITLE3=Prescription
TTITLE4=Issues
TTITLE5=Get it Up
TTITLE6=Revenge
TTITLE7=Animal
TTITLE8=Mastermind
TTITLE9=On It
TTITLE10=Pay For It
TTITLE11=Due
TTITLE12=Money
TTITLE13=Bomb This Track
TTITLE14=Mark David Chapman
TTITLE15=Uncle
TTITLE16=38
TTITLE17=Never Wanted to Dance - The Birthday Massacre Remix
TTITLE18=Never Wanted to Dance - Electro Hurtz Mix
TTITLE19=Never Wanted to Dance - Tommie Sunshine [THMV] Remix
TTITLE20=Never Wanted to Dance - Spider Mix
EXTD=
EXTT0=
EXTT1=
EXTT2=
EXTT3=
EXTT4=
EXTT5=
EXTT6=
EXTT7=
EXTT8=
EXTT9=
EXTT10=
EXTT11=
EXTT12=
EXTT13=
EXTT14=
EXTT15=
EXTT16=
EXTT17=
EXTT18=
EXTT19=
EXTT20=
PLAYORDER=
